<?xml version="1.0" encoding="UTF-8"?>
<svg id="Camada_1" data-name="Camada 1" xmlns="http://www.w3.org/2000/svg" xmlns:xlink="http://www.w3.org/1999/xlink" viewBox="0 0 1920 911.6">
  <defs>
    <style>
      .cls-1 {
        fill: #fff;
      }

      .cls-2 {
        fill: url(#Gradiente_sem_nome_17);
      }

      .cls-3 {
        fill: url(#Gradiente_sem_nome_56);
      }
    </style>
    <linearGradient id="Gradiente_sem_nome_17" data-name="Gradiente sem nome 17" x1="1037.73" y1="511.66" x2="668.83" y2="585.72" gradientUnits="userSpaceOnUse">
      <stop offset="0" stop-color="#517b9b"/>
      <stop offset=".23" stop-color="#496187"/>
      <stop offset=".49" stop-color="#434b78"/>
      <stop offset=".74" stop-color="#3f3f6f"/>
      <stop offset=".98" stop-color="#3e3b6c"/>
    </linearGradient>
    <linearGradient id="Gradiente_sem_nome_56" data-name="Gradiente sem nome 56" x1="1147.56" y1="160.64" x2="762.85" y2="471.56" gradientUnits="userSpaceOnUse">
      <stop offset=".16" stop-color="#527c9b"/>
      <stop offset=".38" stop-color="#4c6a8a"/>
      <stop offset=".58" stop-color="#455677"/>
      <stop offset=".96" stop-color="#34445c"/>
    </linearGradient>
  </defs>
  <g>
    <path class="cls-1" d="M118.68,775.97l23.16-17.37s-19.85-24.81-64.92-24.81-60.8,20.27-60.8,48.38,24.81,40.12,55.82,50.03c31.01,9.94,42.18,18.2,42.18,33.08s-21.91,22.74-38.87,22.74-43.84-10.75-53.34-27.29c-2.06,2.06-21.91,16.95-21.91,16.95,0,0,25.64,33.91,77.75,33.91s70.3-23.99,70.3-51.28-20.68-40.12-65.76-55.82c-38.87-15.31-35.58-22.33-35.58-27.29s3.31-19.43,32.68-19.43,39.28,18.2,39.28,18.2v-.02Z"/>
    <path class="cls-1" d="M1405.18,775.97l23.16-17.37s-19.85-24.81-64.92-24.81-60.8,20.27-60.8,48.38,24.81,40.12,55.82,50.03c31.01,9.94,42.18,18.2,42.18,33.08s-21.91,22.74-38.87,22.74-43.84-10.75-53.34-27.29c-2.06,2.06-21.91,16.95-21.91,16.95,0,0,25.64,33.91,77.75,33.91s70.3-23.99,70.3-51.28-20.68-40.12-65.76-55.82c-38.87-15.31-35.58-22.33-35.58-27.29s3.31-19.43,32.68-19.43,39.28,18.2,39.28,18.2v-.02Z"/>
    <polygon class="cls-1" points="231.59 907.33 231.59 730.33 322.99 818.02 413.97 730.33 413.97 907.33 382.12 907.33 382.12 802.71 323.26 860.61 264.25 802.71 264.67 907.33 231.59 907.33"/>
    <polygon class="cls-1" points="1051.57 907.33 1085.48 907.33 1085.48 761.28 1145.57 761.55 1145.57 738.6 992.57 738.6 992.57 760.95 1052.68 760.95 1051.57 907.33"/>
    <polygon class="cls-1" points="1550.36 824.98 1550.36 908.1 1518.09 908.1 1518.09 737.7 1550.36 737.7 1550.36 814.65 1627.69 737.31 1670.7 737.31 1585.91 820.44 1673.81 908.31 1630.59 908.31 1550.36 824.98"/>
    <polygon class="cls-1" points="1744.64 737.31 1814.13 843.03 1814.13 908.31 1847.77 908.31 1847.77 843.58 1920 737.31 1881.4 737.31 1832.31 818.23 1781.03 737.31 1744.64 737.31"/>
    <path class="cls-1" d="M590.16,730.33l-92.65,177h37.22l12-28.12h86.86l12.83,28.12h36.8l-93.04-177h-.02ZM557.89,855.99l32.47-69.19,31.78,69.19h-64.26Z"/>
    <path class="cls-1" d="M862.14,844.08s37.49-1.1,37.49-52.93-65.61-54.03-65.61-54.03h-67.28v170.25h31.97v-57.76h30.89l41.37,57.76h38.05l-46.86-63.28-.02-.02ZM798.17,827.31v-66.71s68.38-7.44,68.38,33.37-68.38,33.37-68.38,33.37v-.02Z"/>
  </g>
  <path class="cls-2" d="M958.04,440.31c1.21-.73,2.73-.73,3.94,0l215.99,123.89c3.48,1.87,2.15,7.17-1.81,7.14h-432.3c-3.96,0-5.31-5.27-1.81-7.14l215.99-123.89h0Z"/>
  <path class="cls-3" d="M964.18,2.68l198.5,445.19c-2.06,14.1-11.79,24.27-20.04,30.12-5.96,4.23-13.83,4.67-20.18,1.06l-154.34-87.5c-5.02-2.85-11.18-2.83-16.18.06l-150.74,87.06c-9.06,5.23-20.54,3.69-27.83-3.81-7.96-8.16-13.87-19.68-13.87-25.37L955.87,2.71c1.58-3.6,6.69-3.6,8.27-.02h.04Z"/>
</svg>